<?xml version="1.0" encoding="UTF-8"?>
<svg id="Layer_1" data-name="Layer 1" xmlns="http://www.w3.org/2000/svg" viewBox="0 0 205.43 170.23">
  <defs>
    <style>
      .cls-1 {
        fill: #ed2224;
      }
    </style>
  </defs>
  <path class="cls-1" d="M204.24,67.25c-1.76-10.43-5.05-20.36-10.18-29.67-4.91-8.93-10.98-16.88-18.72-23.53-8.28-7.11-17.53-12.15-28.53-13.65-5.38-.74-10.69-.53-15.82,1.12-3.76,1.21-7.3,3.06-10.97,4.57-10.47,4.3-20.95,8.58-31.43,12.85-12.61,5.13-25.22,10.25-37.83,15.36-7.19,2.91-14.34,5.9-21.58,8.68-5.76,2.21-11.09,5.07-15.42,9.53-4.69,4.84-8.04,10.54-10.27,16.89C-.26,80.13-.73,91.16,.86,102.32c1.28,9.03,4.06,17.63,8.02,25.85,5.4,11.22,12.54,21.1,22.24,29.03,5.31,4.34,11.08,7.9,17.58,10.23,8.76,3.14,17.61,3.89,26.55,.95,2.9-.95,5.64-2.36,8.47-3.51,6.01-2.45,12.04-4.86,18.04-7.32,9.81-4,19.6-8.03,29.41-12.04,8.72-3.56,17.45-7.11,26.18-10.66,6.31-2.56,12.57-5.23,18.95-7.61,10.07-3.76,17.65-10.3,22.56-19.82,4.5-8.72,6.37-18.08,6.56-27.88-.38-4.1-.5-8.23-1.19-12.28Zm-118.54,71.37c-2.28,3.14-5.4,5.28-8.75,7.17-3.76,2.13-7.84,3.32-12.02,4.13-1.71,.33-3.49,.26-5.17,.37-6.21-.18-11.89-1.78-17.24-4.85-7.84-4.49-13.36-11.1-17.84-18.76-3.1-5.3-5.18-11.01-6.48-16.97-.7-3.21-.92-6.54-1.14-9.83-.18-2.67-.25-5.39,0-8.05,.44-4.51,1.47-8.91,3.18-13.15,2.19-5.41,5.47-10.05,9.87-13.85,3.12-2.69,6.67-4.72,10.55-6.18,3.4-1.28,6.88-2.11,10.53-2.17,5.53-.08,9.67,2.37,12.74,6.86,2.93,4.29,4.46,9.17,5.97,14.05,1.91,6.18,3.6,12.44,5.61,18.58,2.29,6.98,5.21,13.7,8.44,20.31,1.8,3.69,3.58,7.42,4.27,11.58,.67,4.01-.19,7.55-2.52,10.75Zm53.49-55.72c-7.36-.24-12.46-5.61-12.57-13.15-.1-7.29,5.15-13.18,12.87-13.22,7.03-.04,12.5,5.69,12.67,13.21-.12,7.35-5.74,13.39-12.98,13.16Zm50.31-3.23c-3.19,21.04-15.04,35.26-34.28,41.13-.44,.13-.88,.2-1.31,.2-1.93,0-3.71-1.25-4.3-3.19-.72-2.38,.62-4.89,2.99-5.62,15.92-4.85,25.34-16.25,28.01-33.87,3.08-20.37-6.21-38.09-24.25-46.25-2.26-1.02-3.27-3.69-2.25-5.96,1.02-2.26,3.69-3.27,5.95-2.25,21.87,9.9,33.15,31.28,29.44,55.8Z"/>
</svg>